{"title":"Aarakshan 2011 PDVDrip XVID [.Dude.]","uid":6603190,"size":704176818,"categoryP":"video","categoryS":"movies","magnet":"?xt=urn:btih:c6412680ea14beb878ec1e4f25e77ba961b01717&amp;dn=Aarakshan+2011+PDVDrip+XVID+%5B.Dude.%5D&amp;tr=udp%3A%2F%2Ftracker.openbittorrent.com%3A80&amp;tr=udp%3A%2F%2Fopen.demonii.com%3A1337&amp;tr=udp%3A%2F%2Ftracker.coppersurfer.tk%3A6969&amp;tr=udp%3A%2F%2Fexodus.desync.com%3A6969","seeders":0,"leechers":1,"uploader":".Dude.","files":-1,"time":1313298455,"description":"General\nTitle:Aarakshan - 2011 - PDVD RIP - XVID - MP3 - DUS - Exclusive\nFormat                           : AVI\nFormat/Info                      : Audio Video Interleave\nFile size                        : 666 MiB\nDuration                         : 2h 32mn\nOverall bit rate                 : 613 Kbps\n\nVideo\nID                               : 0\nFormat                           : MPEG-4 Visual\nFormat profile                   : Advanced Simple@L5\nFormat settings, BVOP            : 2\nFormat settings, QPel            : No\nFormat settings, GMC             : No warppoints\nFormat settings, Matrix          : Default (H.263)\nCodec ID                         : XVID\nCodec ID/Hint                    : XviD\nDuration                         : 2h 32mn\nBit rate                         : 544 Kbps\nWidth                            : 584 pixels\nHeight                           : 248 pixels\nDisplay aspect ratio             : 2.35:1\nFrame rate                       : 20.000 fps\nColor space                      : YUV\nChroma subsampling               : 4:2:0\nBit depth                        : 8 bits\nScan type                        : Progressive\nCompression mode                 : Lossy\nBits/(Pixel*Frame)               : 0.188\nStream size                      : 591 MiB (89%)\nWriting library                  : XviD 1.2.1 (UTC 2008-12-04)\n\nAudio\nID                               : 1\nFormat                           : MPEG Audio\nFormat version                   : Version 1\nFormat profile                   : Layer 2\nCodec ID                         : 50\nDuration                         : 2h 32mn\nBit rate mode                    : Constant\nBit rate                         : 64.0 Kbps\nChannel(s)                       : 2 channels\nSampling rate                    : 48.0 KHz\nCompression mode                 : Lossy\nStream size                      : 69.6 MiB (10%)\nAlignment                        : Aligned on interleaves\nInterleave, duration             : 200 ms (4.00 video frames)\nInterleave, preload duration     : 216 ms\n\n\nALL CREDITS TO TEAM DUS.\nSAMPLE INCLUDED.\n\nScreens: &lt;a href=&quot;\nhttp://www.leetleech.org/images/62317139785957488732.png&quot; rel=&quot;nofollow&quot; target=&quot;_NEW&quot;&gt;\nhttp://www.leetleech.org/images/62317139785957488732.png&lt;/a&gt; &lt;a href=&quot;\nhttp://www.leetleech.org/images/45139349277255515198.png&quot; rel=&quot;nofollow&quot; target=&quot;_NEW&quot;&gt;\nhttp://www.leetleech.org/images/45139349277255515198.png&lt;/a&gt; &lt;a href=&quot;\nhttp://www.leetleech.org/images/84921621329540062134.png&quot; rel=&quot;nofollow&quot; target=&quot;_NEW&quot;&gt;\nhttp://www.leetleech.org/images/84921621329540062134.png&lt;/a&gt; &lt;a href=&quot;\nhttp://www.leetleech.org/images/78581387227369834446.png&quot; rel=&quot;nofollow&quot; target=&quot;_NEW&quot;&gt;\nhttp://www.leetleech.org/images/78581387227369834446.png&lt;/a&gt; &lt;a href=&quot;\nhttp://www.leetleech.org/images/06910432174740532101.png&quot; rel=&quot;nofollow&quot; target=&quot;_NEW&quot;&gt;\nhttp://www.leetleech.org/images/06910432174740532101.png&lt;/a&gt;\n\nStoryline\n\nAarakshan is the story of Prabhakar Anand (Amitabh Bachchan), the legendary idealistic principal of a college that he has single-handedly turned into the state's best. It is the story of his loyal disciple, Deepak Kumar (Saif Ali Khan) who will do anything for his Sir. Of Deepak's love for Prabhakar's daughter, Poorbi (Deepika Padukone), of his friendship with Sushant (Prateik). It is the story of their love, their lively friendship, their zest for life, and of their dreams for the future. Centered on one of the most controversial issues of recent years, with the Supreme Court's order on reservations, the story suddenly becomes a rollercoaster ride of high drama, conflict, and rebellion, which tests their love and friendship for one another, and their loyalty to Prabhakar Anand.\n\n\n  \n~ Seed 4 others,Others would seed 4 u ~\n         Be a Gentleman!!\n\n    ______            ______   _______    \n   (  __  \\ |\\     /|(  __  \\ (  ____ \\   \n   | (  \\  )| )   ( || (  \\  )| (    \\/   \n   | |   ) || |   | || |   ) || (__       \n   | |   | || |   | || |   | ||  __)      \n   | |   ) || |   | || |   ) || (         \n _ | (__/  )| (___) || (__/  )| (____/\\ _ \n(_)(______/ (_______)(______/ (_______/(_)\n\n\nA simple THANKS goes a long way... :-)\nAny comments would b appreciated.","torrent":{"xt":"urn:btih:c6412680ea14beb878ec1e4f25e77ba961b01717","amp;dn":"Aarakshan+2011+PDVDrip+XVID+%5B.Dude.%5D","amp;tr":["udp%3A%2F%2Ftracker.openbittorrent.com%3A80","udp%3A%2F%2Fopen.demonii.com%3A1337","udp%3A%2F%2Ftracker.coppersurfer.tk%3A6969","udp%3A%2F%2Fexodus.desync.com%3A6969"],"infoHash":"c6412680ea14beb878ec1e4f25e77ba961b01717","infoHashBuffer":{"type":"Buffer","data":[198,65,38,128,234,20,190,184,120,236,30,79,37,231,123,169,97,176,23,23]},"announce":[],"urlList":[]}}